<svg data-v-423bf9ae="" xmlns="http://www.w3.org/2000/svg" viewBox="0 0 298.67402990548015 60" class="font"><g data-v-423bf9ae="" id="52617bac-b75e-4ad4-a009-458d28521137" fill="#D4AF37" transform="matrix(4.735595867300924,0,0,4.735595867300924,0.0000021065860948965565,-10.276242439665985)"><path d="M0 12.29L3.09 2.69L5.18 2.69L8.27 12.29L6.44 12.29L5.85 10.40L2.31 10.40L1.74 12.29L0 12.29ZM2.80 8.81L5.36 8.81L4.40 5.60Q4.30 5.29 4.21 4.86Q4.13 4.42 4.12 4.30L4.12 4.30L4.06 4.30Q4.03 4.44 3.95 4.88Q3.86 5.32 3.78 5.60L3.78 5.60L2.80 8.81ZM11.02 12.46Q10.11 12.46 9.58 11.89Q9.06 11.33 9.06 10.09L9.06 10.09L9.06 4.93L10.74 4.93L10.74 9.63Q10.74 10.33 10.98 10.63Q11.21 10.93 11.70 10.93L11.70 10.93Q12.19 10.93 12.52 10.52Q12.85 10.11 12.85 9.49L12.85 9.49L12.85 4.93L14.53 4.93L14.53 12.29L13.13 12.29L12.96 11.38L12.88 11.38Q12.56 11.86 12.10 12.16Q11.63 12.46 11.02 12.46L11.02 12.46ZM16.07 12.29L16.07 4.93L17.47 4.93L17.67 6.01L17.75 6.01Q17.93 5.45 18.23 5.10Q18.52 4.76 19.03 4.76L19.03 4.76Q19.29 4.76 19.49 4.81Q19.68 4.86 19.73 4.87L19.73 4.87L19.73 6.50L19.12 6.50Q18.51 6.50 18.13 6.89Q17.75 7.28 17.75 8.19L17.75 8.19L17.75 12.29L16.07 12.29ZM21.81 12.46Q21.13 12.46 20.55 11.99Q19.96 11.52 19.96 10.39L19.96 10.39Q19.96 8.99 20.92 8.40Q21.87 7.81 23.62 7.81L23.62 7.81L23.62 7.04Q23.62 6.61 23.46 6.37Q23.30 6.13 22.85 6.13L22.85 6.13Q22.39 6.13 22.18 6.36Q21.97 6.59 21.97 6.90L21.97 6.90L21.97 7.11L20.33 7.11Q20.31 7.03 20.31 6.80L20.31 6.80Q20.31 5.88 20.99 5.32Q21.67 4.76 22.81 4.76L22.81 4.76Q24.07 4.76 24.69 5.32Q25.31 5.88 25.31 6.93L25.31 6.93L25.31 10.56Q25.31 10.81 25.42 10.93Q25.54 11.05 25.70 11.05L25.70 11.05L26.04 11.05L26.04 12.24Q25.62 12.46 25.05 12.46L25.05 12.46Q24.56 12.46 24.21 12.20Q23.87 11.94 23.74 11.49L23.74 11.49L23.67 11.49Q23.32 11.98 22.91 12.22Q22.50 12.46 21.81 12.46L21.81 12.46ZM22.51 11.06Q23.07 11.06 23.34 10.61Q23.62 10.16 23.62 9.45L23.62 9.45L23.62 9.03Q22.76 9.03 22.23 9.30Q21.69 9.58 21.69 10.23L21.69 10.23Q21.69 10.63 21.89 10.84Q22.09 11.06 22.51 11.06L22.51 11.06ZM30.18 12.29L30.18 2.69L31.98 2.69L31.98 10.61L36.04 10.61L36.04 12.29L30.18 12.29ZM37.11 3.70L37.11 2.17L38.79 2.17L38.79 3.70L37.11 3.70ZM37.11 12.29L37.11 4.93L38.79 4.93L38.79 12.29L37.11 12.29ZM41.89 12.29L39.61 4.93L41.37 4.93L42.32 8.09Q42.43 8.44 42.59 9.24Q42.74 10.04 42.78 10.30L42.78 10.30L42.84 10.30Q42.88 10.05 43.01 9.28Q43.13 8.50 43.26 8.09L43.26 8.09L44.20 4.93L45.88 4.93L43.60 12.29L41.89 12.29ZM46.69 3.70L46.69 2.17L48.37 2.17L48.37 3.70L46.69 3.70ZM46.69 12.29L46.69 4.93L48.37 4.93L48.37 12.29L46.69 12.29ZM49.90 12.29L49.90 4.93L51.30 4.93L51.46 5.84L51.55 5.84Q51.87 5.36 52.33 5.06Q52.79 4.76 53.41 4.76L53.41 4.76Q54.32 4.76 54.85 5.33Q55.37 5.89 55.37 7.13L55.37 7.13L55.37 12.29L53.69 12.29L53.69 7.59Q53.69 6.90 53.45 6.59Q53.20 6.29 52.72 6.29L52.72 6.29Q52.23 6.29 51.91 6.71Q51.58 7.14 51.58 7.76L51.58 7.76L51.58 12.29L49.90 12.29ZM57.99 14.84Q57.30 14.84 56.83 14.36Q56.36 13.89 56.36 13.15L56.36 13.15Q56.36 12.17 57.30 11.65L57.30 11.65Q56.71 11.28 56.71 10.54L56.71 10.54Q56.71 10.08 57.02 9.75Q57.32 9.42 57.79 9.25L57.79 9.25Q56.90 8.60 56.90 7.27L56.90 7.27Q56.90 6.10 57.60 5.43Q58.31 4.76 59.61 4.76L59.61 4.76Q60.31 4.76 60.84 4.97L60.84 4.97Q61.22 4.70 61.39 4.33Q61.56 3.96 61.56 3.70L61.56 3.70L62.94 3.70Q62.94 5.21 61.75 5.57L61.75 5.57Q62.34 6.23 62.34 7.27L62.34 7.27Q62.34 8.43 61.64 9.10Q60.93 9.77 59.61 9.77L59.61 9.77L58.91 9.77Q58.69 9.77 58.55 9.90Q58.41 10.02 58.41 10.22L58.41 10.22Q58.41 10.40 58.53 10.53Q58.66 10.65 58.84 10.65L58.84 10.65L61.39 10.65Q62.10 10.65 62.59 11.18Q63.07 11.70 63.07 12.57L63.07 12.57Q63.07 13.24 62.76 13.76Q62.44 14.28 61.89 14.56Q61.35 14.84 60.69 14.84L60.69 14.84L57.99 14.84ZM59.61 8.53Q60.13 8.53 60.40 8.20Q60.66 7.87 60.66 7.27L60.66 7.27Q60.66 6.66 60.40 6.33Q60.13 6.01 59.61 6.01L59.61 6.01Q59.11 6.01 58.84 6.33Q58.58 6.66 58.58 7.27L58.58 7.27Q58.58 7.87 58.84 8.20Q59.11 8.53 59.61 8.53L59.61 8.53ZM58.73 13.57L60.62 13.57Q60.94 13.57 61.16 13.38Q61.38 13.19 61.38 12.88L61.38 12.88Q61.38 12.57 61.18 12.39Q60.98 12.21 60.69 12.21L60.69 12.21L58.73 12.21Q58.45 12.21 58.25 12.40Q58.06 12.60 58.06 12.88L58.06 12.88Q58.06 13.19 58.25 13.38Q58.44 13.57 58.73 13.57L58.73 13.57Z"></path></g></svg>